<?xml version="1.0" standalone="no"?>
<!DOCTYPE svg PUBLIC "-//W3C//DTD SVG 20010904//EN"
 "http://www.w3.org/TR/2001/REC-SVG-20010904/DTD/svg10.dtd">
<svg version="1.0" xmlns="http://www.w3.org/2000/svg"
 width="50" height="50" viewBox="0 0 1300.000000 1300.000000"
 preserveAspectRatio="xMidYMid meet">

<g transform="translate(0.000000,1300.000000) scale(0.100000,-0.100000)"
fill="#fff" stroke="none">
<path d="M0 6500 l0 -6500 6500 0 6500 0 0 6500 0 6500 -6500 0 -6500 0 0
-6500z m9161 4713 c13 -16 12 -17 -3 -4 -17 13 -22 21 -14 21 2 0 10 -8 17
-17z m-3761 -18 c13 -14 21 -25 18 -25 -2 0 -15 11 -28 25 -13 14 -21 25 -18
25 2 0 15 -11 28 -25z m2170 -49 c0 -2 -8 -10 -17 -17 -16 -13 -17 -12 -4 4
13 16 21 21 21 13z m1671 -13 c13 -16 12 -17 -3 -4 -17 13 -22 21 -14 21 2 0
10 -8 17 -17z m-3761 -18 c13 -14 21 -25 18 -25 -2 0 -15 11 -28 25 -13 14
-21 25 -18 25 2 0 15 -11 28 -25z m2010 -49 c0 -2 -8 -10 -17 -17 -16 -13 -17
-12 -4 4 13 16 21 21 21 13z m1831 -13 c13 -16 12 -17 -3 -4 -17 13 -22 21
-14 21 2 0 10 -8 17 -17z m-3761 -18 c13 -14 21 -25 18 -25 -2 0 -15 11 -28
25 -13 14 -21 25 -18 25 2 0 15 -11 28 -25z m1850 -49 c0 -2 -8 -10 -17 -17
-16 -13 -17 -12 -4 4 13 16 21 21 21 13z m1991 -13 c13 -16 12 -17 -3 -4 -17
13 -22 21 -14 21 2 0 10 -8 17 -17z m-3761 -18 c13 -14 21 -25 18 -25 -2 0
-15 11 -28 25 -13 14 -21 25 -18 25 2 0 15 -11 28 -25z m1690 -48 c0 -2 -10
-12 -22 -23 l-23 -19 19 23 c18 21 26 27 26 19z m2151 -14 c13 -16 12 -17 -3
-4 -17 13 -22 21 -14 21 2 0 10 -8 17 -17z m-3761 -18 c13 -14 21 -25 18 -25
-2 0 -15 11 -28 25 -13 14 -21 25 -18 25 2 0 15 -11 28 -25z m1530 -48 c0 -2
-10 -12 -22 -23 l-23 -19 19 23 c18 21 26 27 26 19z m2311 -14 c13 -16 12 -17
-3 -4 -17 13 -22 21 -14 21 2 0 10 -8 17 -17z m-3761 -18 c13 -14 21 -25 18
-25 -2 0 -15 11 -28 25 -13 14 -21 25 -18 25 2 0 15 -11 28 -25z m51 -52 c13
-16 12 -17 -3 -4 -17 13 -22 21 -14 21 2 0 10 -8 17 -17z m1319 4 c0 -2 -10
-12 -22 -23 l-23 -19 19 23 c18 21 26 27 26 19z m2471 -14 c13 -16 12 -17 -3
-4 -17 13 -22 21 -14 21 2 0 10 -8 17 -17z m-3694 -52 c16 -16 34 -46 41 -67
33 -110 102 -414 102 -450 0 -101 -138 -135 -184 -46 -27 52 -127 475 -121
509 8 42 57 83 100 83 24 0 42 -9 62 -29z m1629 11 c51 -43 54 -78 19 -207
-13 -49 -39 -147 -56 -217 -38 -151 -55 -183 -104 -197 -45 -12 -75 -2 -104
35 -28 36 -27 69 9 216 72 292 84 330 113 360 34 33 90 38 123 10z m-486 -25
c0 -2 -10 -12 -22 -23 l-23 -19 19 23 c18 21 26 27 26 19z m2631 -14 c13 -16
12 -17 -3 -4 -17 13 -22 21 -14 21 2 0 10 -8 17 -17z m-7275 -95 l29 -33 -32
29 c-18 17 -33 31 -33 33 0 8 8 1 36 -29z m4564 29 c0 -2 -10 -12 -22 -23
l-23 -19 19 23 c18 21 26 27 26 19z m2791 -14 c13 -16 12 -17 -3 -4 -10 7 -18
15 -18 17 0 8 8 3 21 -13z m-3751 -28 c13 -14 21 -25 18 -25 -2 0 -15 11 -28
25 -13 14 -21 25 -18 25 2 0 15 -11 28 -25z m-3485 -105 c44 -44 77 -80 75
-80 -3 0 -41 36 -85 80 -44 44 -77 80 -75 80 3 0 41 -36 85 -80z m4365 67 c0
-2 -10 -12 -22 -23 l-23 -19 19 23 c18 21 26 27 26 19z m2951 -14 c13 -16 12
-17 -3 -4 -17 13 -22 21 -14 21 2 0 10 -8 17 -17z m-3761 -18 c13 -14 21 -25
18 -25 -2 0 -15 11 -28 25 -13 14 -21 25 -18 25 2 0 15 -11 28 -25z m730 -48
c0 -2 -10 -12 -22 -23 l-23 -19 19 23 c18 21 26 27 26 19z m3111 -14 c13 -16
12 -17 -3 -4 -10 7 -18 15 -18 17 0 8 8 3 21 -13z m-3761 -18 c13 -14 21 -25
18 -25 -2 0 -15 11 -28 25 -13 14 -21 25 -18 25 2 0 15 -11 28 -25z m-3514
-77 l29 -33 -32 29 c-18 17 -33 31 -33 33 0 8 8 1 36 -29z m4084 29 c0 -2 -10
-12 -22 -23 l-23 -19 19 23 c18 21 26 27 26 19z m3271 -14 c13 -16 12 -17 -3
-4 -10 7 -18 15 -18 17 0 8 8 3 21 -13z m-3761 -18 c13 -14 21 -25 18 -25 -2
0 -15 11 -28 25 -13 14 -21 25 -18 25 2 0 15 -11 28 -25z m-3514 -77 l29 -33
-32 29 c-18 17 -33 31 -33 33 0 8 8 1 36 -29z m3924 29 c0 -2 -10 -12 -22 -23
l-23 -19 19 23 c18 21 26 27 26 19z m3431 -14 c13 -16 12 -17 -3 -4 -17 13
-22 21 -14 21 2 0 10 -8 17 -17z m179 13 c0 -2 -8 -10 -17 -17 -16 -13 -17
-12 -4 4 13 16 21 21 21 13z m-3940 -31 c13 -14 21 -25 18 -25 -2 0 -15 11
-28 25 -13 14 -21 25 -18 25 2 0 15 -11 28 -25z m250 -48 c0 -2 -10 -12 -22
-23 l-23 -19 19 23 c18 21 26 27 26 19z m-170 -32 c13 -14 21 -25 18 -25 -2 0
-15 11 -28 25 -13 14 -21 25 -18 25 2 0 15 -11 28 -25z m3774 7 c2 -4 -4 -8
-14 -8 -10 0 -16 4 -14 8 3 4 9 8 14 8 5 0 11 -4 14 -8z m-7353 -19 c13 -16
12 -17 -3 -4 -10 7 -18 15 -18 17 0 8 8 3 21 -13z m144 -143 c66 -66 117 -120
115 -120 -3 0 -59 54 -125 120 -66 66 -117 120 -115 120 3 0 59 -54 125 -120z
m7135 106 c0 -2 -8 -10 -17 -17 -16 -13 -17 -12 -4 4 13 16 21 21 21 13z m141
-13 c13 -16 12 -17 -3 -4 -17 13 -22 21 -14 21 2 0 10 -8 17 -17z m-3764 0
c-4 -3 3 -18 15 -32 l23 -26 -27 24 c-24 21 -29 41 -11 41 4 0 3 -3 0 -7z
m-67 -66 c0 -2 -10 -12 -22 -23 l-23 -19 19 23 c18 21 26 27 26 19z m146 -29
l29 -33 -32 29 c-31 28 -38 36 -30 36 2 0 16 -15 33 -32z m3464 28 c0 -2 -8
-10 -17 -17 -16 -13 -17 -12 -4 4 13 16 21 21 21 13z m301 -13 c13 -16 12 -17
-3 -4 -17 13 -22 21 -14 21 2 0 10 -8 17 -17z m-3991 -66 c0 -2 -10 -12 -22
-23 l-23 -19 19 23 c18 21 26 27 26 19z m306 -29 l29 -33 -32 29 c-31 28 -38
36 -30 36 2 0 16 -15 33 -32z m3304 29 c0 -2 -12 -14 -27 -28 l-28 -24 24 28
c23 25 31 32 31 24z m461 -14 c13 -16 12 -17 -3 -4 -10 7 -18 15 -18 17 0 8 8
3 21 -13z m-4151 -66 c0 -2 -10 -12 -22 -23 l-23 -19 19 23 c18 21 26 27 26
19z m3610 0 c0 -2 -12 -14 -27 -28 l-28 -24 24 28 c23 25 31 32 31 24z m621
-14 c13 -16 12 -17 -3 -4 -10 7 -18 15 -18 17 0 8 8 3 21 -13z m-5931 -24 c78
-57 358 -298 364 -315 15 -40 6 -86 -24 -116 -27 -27 -36 -30 -74 -26 -39 5
-64 22 -222 155 -99 83 -186 159 -195 169 -57 66 -11 163 77 164 19 0 47 -12
74 -31z m2176 -1 l29 -33 -32 29 c-31 28 -38 36 -30 36 2 0 16 -15 33 -32z
m2174 15 c50 -29 64 -87 32 -135 -14 -21 -154 -143 -353 -306 -15 -12 -48 -25
-73 -28 -41 -6 -48 -4 -75 24 -32 32 -39 69 -22 115 8 20 304 277 381 330 31
22 74 22 110 0z m-2730 -56 c0 -2 -10 -12 -22 -23 l-23 -19 19 23 c18 21 26
27 26 19z m611 -14 c13 -16 12 -17 -3 -4 -10 7 -18 15 -18 17 0 8 8 3 21 -13z
m2999 14 c0 -2 -12 -14 -27 -28 l-28 -24 24 28 c23 25 31 32 31 24z m781 -14
c13 -16 12 -17 -3 -4 -10 7 -18 15 -18 17 0 8 8 3 21 -13z m-3641 -46 c52 -4
145 -16 205 -27 583 -111 1069 -429 1377 -900 273 -418 373 -952 282 -1499
-71 -429 -220 -785 -493 -1181 -28 -41 -63 -93 -78 -115 -14 -22 -45 -65 -68
-95 -53 -69 -187 -270 -250 -375 -163 -269 -275 -601 -330 -974 -29 -191 -31
-199 -59 -223 -20 -16 -71 -17 -849 -18 -761 0 -831 1 -858 17 -33 19 -32 15
-64 234 -44 299 -118 554 -227 777 l-60 124 -26 -24 -27 -23 23 27 c21 23 22
29 11 50 -20 38 -177 271 -317 468 -200 282 -308 470 -411 717 -158 375 -229
731 -218 1088 3 99 10 207 16 240 6 33 16 87 22 120 33 187 153 474 278 665
270 412 682 714 1166 855 50 15 106 28 125 31 19 2 58 9 85 14 106 20 252 30
440 30 154 0 195 3 189 13 -6 9 -4 9 7 1 8 -6 57 -14 109 -17z m2780 -20 c0
-2 -12 -14 -27 -28 l-28 -24 24 28 c23 25 31 32 31 24z m-6369 -74 c13 -16 12
-17 -3 -4 -10 7 -18 15 -18 17 0 8 8 3 21 -13z m6289 -6 c0 -2 -12 -14 -27
-28 l-28 -24 24 28 c23 25 31 32 31 24z m-6215 -67 c10 -11 16 -20 13 -20 -3
0 -13 9 -23 20 -10 11 -16 20 -13 20 3 0 13 -9 23 -20z m6135 -13 c0 -2 -12
-14 -27 -28 l-28 -24 24 28 c23 25 31 32 31 24z m-6055 -67 c10 -11 16 -20 13
-20 -3 0 -13 9 -23 20 -10 11 -16 20 -13 20 3 0 13 -9 23 -20z m5975 -13 c0
-2 -12 -14 -27 -28 l-28 -24 24 28 c23 25 31 32 31 24z m-5895 -67 c10 -11 16
-20 13 -20 -3 0 -13 9 -23 20 -10 11 -16 20 -13 20 3 0 13 -9 23 -20z m5815
-13 c0 -2 -12 -14 -27 -28 l-28 -24 24 28 c23 25 31 32 31 24z m-5550 -254 c0
-8 -13 5 -110 105 l-105 107 108 -105 c59 -57 107 -106 107 -107z m5470 174
c0 -2 -12 -14 -27 -28 l-28 -24 24 28 c23 25 31 32 31 24z m-80 -80 c0 -2 -12
-14 -27 -28 l-28 -24 24 28 c23 25 31 32 31 24z m-5235 -849 c210 -24 240 -33
261 -83 18 -43 11 -76 -24 -111 -27 -26 -28 -27 -132 -20 -58 3 -163 13 -235
21 -213 25 -242 38 -252 112 -4 29 0 44 17 66 42 53 38 53 365 15z m5672 22
c57 -20 81 -104 43 -152 -26 -34 -72 -44 -285 -68 -277 -29 -277 -29 -316 9
-21 22 -29 39 -29 66 0 70 37 97 145 109 28 3 106 12 175 21 122 15 174 20
216 23 12 1 34 -3 51 -8z m-527 -955 c13 -14 21 -25 18 -25 -2 0 -15 11 -28
25 -13 14 -21 25 -18 25 2 0 15 -11 28 -25z m-5330 -48 c0 -1 -60 -61 -132
-132 l-133 -130 130 133 c120 123 135 137 135 129z m5410 -32 c13 -14 21 -25
18 -25 -2 0 -15 11 -28 25 -13 14 -21 25 -18 25 2 0 15 -11 28 -25z m80 -80
c13 -14 21 -25 18 -25 -2 0 -15 11 -28 25 -13 14 -21 25 -18 25 2 0 15 -11 28
-25z m80 -80 c13 -14 21 -25 18 -25 -2 0 -15 11 -28 25 -13 14 -21 25 -18 25
2 0 15 -11 28 -25z m80 -80 c13 -14 21 -25 18 -25 -2 0 -15 11 -28 25 -13 14
-21 25 -18 25 2 0 15 -11 28 -25z m1360 -9 c0 -2 -8 -10 -17 -17 -16 -13 -17
-12 -4 4 13 16 21 21 21 13z m-7310 -19 c0 -2 -10 -12 -22 -23 l-23 -19 19 23
c18 21 26 27 26 19z m6030 -52 c13 -14 21 -25 18 -25 -2 0 -15 11 -28 25 -13
14 -21 25 -18 25 2 0 15 -11 28 -25z m1200 -9 c0 -2 -8 -10 -17 -17 -16 -13
-17 -12 -4 4 13 16 21 21 21 13z m-7310 -19 c0 -2 -10 -12 -22 -23 l-23 -19
19 23 c18 21 26 27 26 19z m6190 -52 c13 -14 21 -25 18 -25 -2 0 -15 11 -28
25 -13 14 -21 25 -18 25 2 0 15 -11 28 -25z m1040 -9 c0 -2 -8 -10 -17 -17
-16 -13 -17 -12 -4 4 13 16 21 21 21 13z m-7310 -19 c0 -2 -10 -12 -22 -23
l-23 -19 19 23 c18 21 26 27 26 19z m6350 -52 c13 -14 21 -25 18 -25 -2 0 -15
11 -28 25 -13 14 -21 25 -18 25 2 0 15 -11 28 -25z m880 -9 c0 -2 -8 -10 -17
-17 -16 -13 -17 -12 -4 4 13 16 21 21 21 13z m-7310 -20 c0 -2 -8 -10 -17 -17
-16 -13 -17 -12 -4 4 13 16 21 21 21 13z m6510 -51 c13 -14 21 -25 18 -25 -2
0 -15 11 -28 25 -13 14 -21 25 -18 25 2 0 15 -11 28 -25z m720 -9 c0 -2 -8
-10 -17 -17 -16 -13 -17 -12 -4 4 13 16 21 21 21 13z m-640 -71 c13 -14 21
-25 18 -25 -2 0 -15 11 -28 25 -13 14 -21 25 -18 25 2 0 15 -11 28 -25z m560
-9 c0 -2 -8 -10 -17 -17 -16 -13 -17 -12 -4 4 13 16 21 21 21 13z m-480 -71
c13 -14 21 -25 18 -25 -2 0 -15 11 -28 25 -13 14 -21 25 -18 25 2 0 15 -11 28
-25z m400 -9 c0 -2 -8 -10 -17 -17 -16 -13 -17 -12 -4 4 13 16 21 21 21 13z
m-320 -71 c13 -14 21 -25 18 -25 -2 0 -15 11 -28 25 -13 14 -21 25 -18 25 2 0
15 -11 28 -25z m240 -9 c0 -2 -8 -10 -17 -17 -16 -13 -17 -12 -4 4 13 16 21
21 21 13z m-7376 -89 c-27 -29 -52 -52 -56 -50 -6 3 92 102 101 103 2 0 -18
-24 -45 -53z m7216 18 c13 -14 21 -25 18 -25 -2 0 -15 11 -28 25 -13 14 -21
25 -18 25 2 0 15 -11 28 -25z m90 2 c0 -2 -10 -12 -22 -23 l-23 -19 19 23 c18
21 26 27 26 19z m-15 -77 c10 -11 16 -20 13 -20 -3 0 -13 9 -23 20 -10 11 -16
20 -13 20 3 0 13 -9 23 -20z m-75 -14 c0 -2 -8 -10 -17 -17 -16 -13 -17 -12
-4 4 13 16 21 21 21 13z m-7340 -49 c0 -2 -15 -16 -32 -33 l-33 -29 29 33 c28
30 36 37 36 29z m7491 -14 c13 -16 12 -17 -3 -4 -17 13 -22 21 -14 21 2 0 10
-8 17 -17z m-211 4 c0 -2 -12 -14 -27 -28 l-28 -24 24 28 c23 25 31 32 31 24z
m-7360 -70 c0 -2 -15 -16 -32 -33 l-33 -29 29 33 c28 30 36 37 36 29z m7651
-14 c13 -16 12 -17 -3 -4 -10 7 -18 15 -18 17 0 8 8 3 21 -13z m-371 4 c0 -2
-12 -14 -27 -28 l-28 -24 24 28 c23 25 31 32 31 24z m-7360 -70 c0 -2 -15 -16
-32 -33 l-33 -29 29 33 c28 30 36 37 36 29z m7811 -14 c13 -16 12 -17 -3 -4
-10 7 -18 15 -18 17 0 8 8 3 21 -13z m-551 -17 c0 -2 -8 -10 -17 -17 -16 -13
-17 -12 -4 4 13 16 21 21 21 13z m-7340 -49 c0 -2 -15 -16 -32 -33 l-33 -29
29 33 c28 30 36 37 36 29z m7280 -10 c0 -2 -12 -14 -27 -28 l-28 -24 24 28
c23 25 31 32 31 24z m-7350 -60 c0 -2 -19 -21 -42 -42 l-43 -40 40 43 c36 39
45 47 45 39z m7270 -20 c0 -2 -12 -14 -27 -28 l-28 -24 24 28 c23 25 31 32 31
24z m-7360 -70 c0 -2 -15 -16 -32 -33 l-33 -29 29 33 c28 30 36 37 36 29z
m7280 -10 c0 -2 -12 -14 -27 -28 l-28 -24 24 28 c23 25 31 32 31 24z m-7360
-70 c0 -2 -15 -16 -32 -33 l-33 -29 29 33 c28 30 36 37 36 29z m7280 -10 c0
-2 -12 -14 -27 -28 l-28 -24 24 28 c23 25 31 32 31 24z m-80 -80 c0 -2 -12
-14 -27 -28 l-28 -24 24 28 c23 25 31 32 31 24z m-80 -80 c0 -2 -12 -14 -27
-28 l-28 -24 24 28 c23 25 31 32 31 24z m-80 -80 c0 -2 -12 -14 -27 -28 l-28
-24 24 28 c23 25 31 32 31 24z m-80 -80 c0 -2 -12 -14 -27 -28 l-28 -24 24 28
c23 25 31 32 31 24z m-80 -80 c0 -2 -12 -14 -27 -28 l-28 -24 24 28 c23 25 31
32 31 24z m-1851 -1267 c81 -11 123 -30 154 -72 51 -68 -6 -153 -118 -177 -45
-9 -219 -11 -715 -9 -606 3 -658 4 -695 21 -63 28 -95 65 -95 107 0 66 43 101
154 125 74 16 1196 20 1315 5z m87 -339 c22 -10 52 -33 66 -51 21 -27 24 -38
17 -67 -9 -44 -51 -89 -98 -105 -28 -10 -192 -13 -721 -13 l-685 0 -56 27
c-58 29 -79 57 -79 106 0 49 44 89 120 113 14 4 333 8 710 8 646 1 687 0 726
-18z m-76 -255 c0 -2 -8 -10 -17 -17 -16 -13 -17 -12 -4 4 13 16 21 21 21 13z
m90 -71 c73 -38 92 -116 41 -171 -61 -65 -62 -65 -807 -62 -657 3 -670 3 -714
24 -57 27 -89 61 -92 99 -3 52 25 87 91 114 30 13 141 16 691 21 360 3 679 1
709 -3 29 -4 66 -14 81 -22z m-307 -285 c90 -11 137 -36 160 -82 33 -67 -5
-129 -93 -156 -48 -14 -877 -25 -954 -12 -77 12 -137 43 -159 79 -24 41 -21
65 13 105 37 41 102 65 203 75 96 9 744 2 830 -9z m-4293 -434 c0 -2 -8 -10
-17 -17 -16 -13 -17 -12 -4 4 13 16 21 21 21 13z m7360 0 c0 -2 -8 -10 -17
-17 -16 -13 -17 -12 -4 4 13 16 21 21 21 13z"/>
<path d="M6470 9534 c-90 -5 -221 -22 -310 -40 -137 -28 -335 -97 -372 -131
-10 -9 -18 -13 -18 -9 0 12 -134 -61 -231 -125 -284 -189 -484 -415 -641 -724
-102 -201 -163 -434 -183 -695 -14 -191 29 -514 102 -765 60 -204 178 -484
244 -577 11 -14 19 -29 19 -32 0 -13 114 -184 250 -376 154 -217 263 -379 300
-445 42 -74 118 -229 145 -295 80 -193 167 -514 195 -717 l13 -93 707 0 708 0
6 33 c3 17 8 57 12 87 11 94 71 339 118 480 100 305 202 500 434 830 200 285
246 353 310 458 244 402 392 898 392 1317 0 420 -167 856 -455 1186 -254 291
-625 508 -1021 598 -117 27 -122 27 -98 -1 11 -13 5 -11 -13 6 l-32 29 -258 2
c-142 1 -287 1 -323 -1z m686 -96 l29 -33 -32 29 c-31 28 -38 36 -30 36 2 0
16 -15 33 -32z m90 -90 l29 -33 -32 29 c-31 28 -38 36 -30 36 2 0 16 -15 33
-32z m-1516 -41 c0 -2 -10 -12 -22 -23 l-23 -19 19 23 c18 21 26 27 26 19z
m1590 -32 c19 -19 32 -35 29 -35 -3 0 -20 16 -39 35 -19 19 -32 35 -29 35 3 0
20 -16 39 -35z m-1670 -48 c0 -2 -10 -12 -22 -23 l-23 -19 19 23 c18 21 26 27
26 19z m1750 -32 c19 -19 32 -35 29 -35 -3 0 -20 16 -39 35 -19 19 -32 35 -29
35 3 0 20 -16 39 -35z m-1830 -48 c0 -2 -10 -12 -22 -23 l-23 -19 19 23 c18
21 26 27 26 19z m-80 -80 c0 -2 -10 -12 -22 -23 l-23 -19 19 23 c18 21 26 27
26 19z m1810 -705 c14 -9 50 -44 80 -77 30 -33 83 -89 116 -125 170 -179 174
-186 150 -244 -18 -43 -70 -72 -110 -62 -23 6 -79 59 -180 171 -15 17 -50 54
-77 83 l-49 52 -28 -18 c-15 -11 -58 -39 -97 -64 -134 -85 -306 -193 -328
-206 -12 -7 -49 -30 -82 -52 -153 -100 -165 -105 -235 -104 -37 1 -89 11 -120
22 -30 11 -111 37 -180 57 -299 89 -347 105 -366 126 -40 44 -11 141 46 154
16 3 86 -12 185 -41 88 -26 183 -53 210 -60 28 -8 77 -23 110 -33 124 -40 107
-44 298 75 94 59 208 131 252 159 44 29 112 71 150 95 196 122 206 126 255 92z
m-1374 -675 c13 -14 86 -219 203 -577 101 -305 193 -584 206 -620 13 -36 26
-78 29 -93 4 -15 11 -25 16 -22 5 3 7 0 5 -7 -3 -8 24 -103 60 -211 36 -109
65 -210 65 -226 0 -43 -40 -71 -99 -71 -32 0 -54 6 -67 18 -12 12 -85 217
-202 573 -101 305 -192 577 -202 604 -9 28 -57 170 -105 317 -86 262 -87 268
-71 293 37 56 120 67 162 22z m1650 13 c28 -14 44 -29 48 -46 5 -17 -18 -100
-74 -267 -44 -133 -121 -366 -170 -517 -50 -151 -138 -418 -196 -594 -58 -175
-103 -325 -100 -333 3 -8 2 -12 -3 -9 -5 3 -14 -8 -21 -25 -16 -38 -37 -49
-95 -49 -35 0 -51 6 -70 25 -31 30 -31 41 -1 137 13 42 21 80 18 83 -3 3 -1 5
5 5 6 0 14 12 17 28 4 15 87 270 185 567 98 297 182 551 186 565 7 23 7 24
-11 10 -11 -8 -8 -2 7 15 14 17 35 64 48 105 63 208 94 282 125 301 39 24 50
24 102 -1z m-808 -104 l23 -23 -2 -424 c0 -233 -4 -592 -8 -797 -6 -358 -7
-374 -26 -388 -11 -8 -31 -18 -44 -21 -36 -9 -103 18 -118 47 -22 43 -3 1581
20 1608 31 38 116 37 155 -2z m-1273 -66 c10 -11 16 -20 13 -20 -3 0 -13 9
-23 20 -10 11 -16 20 -13 20 3 0 13 -9 23 -20z m80 -80 c10 -11 16 -20 13 -20
-3 0 -13 9 -23 20 -10 11 -16 20 -13 20 3 0 13 -9 23 -20z m80 -80 c10 -11 16
-20 13 -20 -3 0 -13 9 -23 20 -10 11 -16 20 -13 20 3 0 13 -9 23 -20z m80 -80
c10 -11 16 -20 13 -20 -3 0 -13 9 -23 20 -10 11 -16 20 -13 20 3 0 13 -9 23
-20z m1515 -53 c0 -2 -10 -12 -22 -23 l-23 -19 19 23 c18 21 26 27 26 19z
m-1435 -27 c10 -11 16 -20 13 -20 -3 0 -13 9 -23 20 -10 11 -16 20 -13 20 3 0
13 -9 23 -20z m71 -72 l29 -33 -32 29 c-31 28 -38 36 -30 36 2 0 16 -15 33
-32z m1274 8 c0 -2 -8 -10 -17 -17 -16 -13 -17 -12 -4 4 13 16 21 21 21 13z
m-80 -80 c0 -2 -8 -10 -17 -17 -16 -13 -17 -12 -4 4 13 16 21 21 21 13z m-80
-80 c0 -2 -8 -10 -17 -17 -16 -13 -17 -12 -4 4 13 16 21 21 21 13z m-80 -80
c0 -2 -8 -10 -17 -17 -16 -13 -17 -12 -4 4 13 16 21 21 21 13z m-80 -80 c0 -2
-8 -10 -17 -17 -16 -13 -17 -12 -4 4 13 16 21 21 21 13z m-545 -96 c10 -11 16
-20 13 -20 -3 0 -13 9 -23 20 -10 11 -16 20 -13 20 3 0 13 -9 23 -20z m80 -80
c10 -11 16 -20 13 -20 -3 0 -13 9 -23 20 -10 11 -16 20 -13 20 3 0 13 -9 23
-20z m80 -80 c10 -11 16 -20 13 -20 -3 0 -13 9 -23 20 -10 11 -16 20 -13 20 3
0 13 -9 23 -20z m105 -23 c0 -2 -19 -21 -42 -42 -24 -22 -35 -31 -26 -20 17
18 17 20 0 39 -17 21 -17 21 4 3 20 -16 22 -16 39 3 17 19 25 24 25 17z m-9
-74 c13 -16 12 -17 -3 -4 -10 7 -18 15 -18 17 0 8 8 3 21 -13z m-111 -47 c0
-2 -8 -10 -17 -17 -16 -13 -17 -12 -4 4 13 16 21 21 21 13z m-230 -230 c0 -2
-8 -10 -17 -17 -16 -13 -17 -12 -4 4 13 16 21 21 21 13z m645 -26 c10 -11 16
-20 13 -20 -3 0 -13 9 -23 20 -10 11 -16 20 -13 20 3 0 13 -9 23 -20z m-735
-64 c0 -2 -8 -10 -17 -17 -16 -13 -17 -12 -4 4 13 16 21 21 21 13z m-80 -80
c0 -2 -8 -10 -17 -17 -16 -13 -17 -12 -4 4 13 16 21 21 21 13z m1135 -176 c10
-11 16 -20 13 -20 -3 0 -13 9 -23 20 -10 11 -16 20 -13 20 3 0 13 -9 23 -20z
m80 -80 c10 -11 16 -20 13 -20 -3 0 -13 9 -23 20 -10 11 -16 20 -13 20 3 0 13
-9 23 -20z m80 -80 c10 -11 16 -20 13 -20 -3 0 -13 9 -23 20 -10 11 -16 20
-13 20 3 0 13 -9 23 -20z m80 -80 c10 -11 16 -20 13 -20 -3 0 -13 9 -23 20
-10 11 -16 20 -13 20 3 0 13 -9 23 -20z m76 -77 c13 -16 12 -17 -3 -4 -10 7
-18 15 -18 17 0 8 8 3 21 -13z"/>
</g>
</svg>
