<?xml version="1.0" standalone="no"?>
<!DOCTYPE svg PUBLIC "-//W3C//DTD SVG 20010904//EN"
 "http://www.w3.org/TR/2001/REC-SVG-20010904/DTD/svg10.dtd">
<svg version="1.0" xmlns="http://www.w3.org/2000/svg"
 width="50" height="50" viewBox="0 0 640.000000 653.000000"
 preserveAspectRatio="xMidYMid meet">

<g transform="translate(0.000000,653.000000) scale(0.100000,-0.100000)"
fill="#ffffff" stroke="none">
<path d="M2920 6519 c-768 -68 -1476 -405 -2016 -961 -608 -625 -927 -1446
-901 -2318 15 -489 114 -883 332 -1325 221 -447 530 -824 919 -1120 472 -359
1001 -572 1591 -640 173 -20 539 -20 715 1 1239 142 2280 986 2675 2169 206
618 218 1284 34 1912 -150 514 -419 963 -809 1353 -348 348 -726 590 -1182
754 -417 150 -913 214 -1358 175z m730 -1093 c389 -74 672 -266 804 -547 95
-200 109 -467 37 -677 -83 -241 -276 -417 -556 -508 -39 -12 -63 -25 -55 -28
8 -3 47 -14 85 -25 304 -88 533 -312 621 -606 22 -75 27 -116 31 -247 6 -173
-4 -272 -43 -405 -105 -362 -399 -620 -833 -728 -146 -36 -288 -55 -476 -62
-320 -11 -621 33 -977 144 l-118 36 0 243 0 242 99 -49 c174 -86 396 -151 616
-180 139 -18 420 -15 549 5 454 73 686 314 686 711 0 358 -206 592 -595 675
-85 18 -146 22 -407 27 l-308 6 0 203 0 204 283 0 c155 0 315 5 356 10 313 41
507 180 566 407 19 69 21 241 4 309 -47 197 -200 340 -427 403 -280 77 -689
43 -1154 -95 -81 -24 -150 -44 -153 -44 -3 0 -4 100 -3 223 l3 222 145 37
c165 42 371 82 540 103 154 19 559 13 680 -9z"/>
</g>
</svg>
