<?xml version="1.0" standalone="no"?>
<!DOCTYPE svg PUBLIC "-//W3C//DTD SVG 20010904//EN"
 "http://www.w3.org/TR/2001/REC-SVG-20010904/DTD/svg10.dtd">
<svg version="1.0" xmlns="http://www.w3.org/2000/svg"
 width="50" height="50" viewBox="0 0 1200.000000 1225.000000"
 preserveAspectRatio="xMidYMid meet">

<g transform="translate(0.000000,1225.000000) scale(0.100000,-0.100000)"
fill="#ffffff" stroke="none">
<path d="M5710 12243 c-1117 -59 -2161 -406 -3070 -1022 -332 -224 -589 -439
-890 -740 -195 -195 -304 -317 -461 -516 -1242 -1569 -1615 -3663 -993 -5576
551 -1694 1853 -3072 3519 -3724 634 -248 1261 -377 1957 -404 1549 -61 3055
479 4213 1510 133 118 414 400 522 524 804 923 1299 2028 1447 3235 60 488 54
1062 -15 1560 -247 1777 -1299 3367 -2842 4299 -753 455 -1622 744 -2492 831
-262 26 -656 36 -895 23z m1080 -5238 l0 -3095 775 0 775 0 0 -400 0 -400
-2020 0 -2020 0 0 400 0 400 775 0 775 0 0 2665 0 2665 -22 -5 c-13 -3 -381
-77 -818 -166 -437 -88 -805 -162 -817 -166 l-23 -5 0 430 0 431 53 11 c28 6
401 83 827 170 l775 158 483 1 482 1 0 -3095z"/>
</g>
</svg>
