<?xml version="1.0" standalone="no"?>
<!DOCTYPE svg PUBLIC "-//W3C//DTD SVG 20010904//EN"
 "http://www.w3.org/TR/2001/REC-SVG-20010904/DTD/svg10.dtd">
<svg version="1.0" xmlns="http://www.w3.org/2000/svg"
 width="50" height="50" viewBox="0 0 225.000000 225.000000"
 preserveAspectRatio="xMidYMid meet">

<g transform="translate(0.000000,225.000000) scale(0.100000,-0.100000)"
fill="#ffffff" stroke="none">
<path d="M975 2239 c-366 -46 -713 -302 -870 -642 -136 -294 -136 -650 0 -944
103 -224 306 -430 529 -538 373 -181 826 -140 1152 103 570 425 621 1235 108
1722 -248 236 -574 342 -919 299z m385 -894 l0 -375 70 0 70 0 0 -95 0 -95
-70 0 -70 0 0 -125 0 -125 -120 0 -120 0 0 125 0 125 -265 0 -265 0 0 113 0
113 228 357 227 356 158 1 157 0 0 -375z"/>
<path d="M1088 1438 c-14 -29 -85 -145 -157 -258 l-132 -205 157 -3 c86 -1
159 -1 161 1 2 2 2 120 1 261 l-3 258 -27 -54z"/>
</g>
</svg>
