<?xml version="1.0" standalone="no"?>
<!DOCTYPE svg PUBLIC "-//W3C//DTD SVG 20010904//EN"
 "http://www.w3.org/TR/2001/REC-SVG-20010904/DTD/svg10.dtd">
<svg version="1.0" xmlns="http://www.w3.org/2000/svg"
 width="50" height="50" viewBox="0 0 222.000000 227.000000"
 preserveAspectRatio="xMidYMid meet">

<g transform="translate(0.000000,227.000000) scale(0.100000,-0.100000)"
fill="#ffffff" stroke="none">
<path d="M965 2259 c-365 -46 -705 -295 -860 -632 -266 -576 9 -1268 597
-1501 142 -56 228 -71 413 -70 151 0 181 4 267 27 685 183 1030 929 723 1563
-206 425 -665 672 -1140 613z m328 -386 c72 -21 127 -55 179 -111 63 -67 83
-125 83 -242 0 -83 -4 -102 -28 -155 -50 -106 -66 -125 -484 -555 l-83 -85
303 0 302 0 0 -75 0 -75 -410 0 -410 0 -3 73 -3 73 239 242 c275 279 334 348
375 435 25 55 29 71 25 132 -5 92 -39 143 -123 185 -51 25 -71 30 -135 29 -92
-1 -177 -22 -286 -73 l-84 -40 0 89 0 89 53 20 c189 70 352 85 490 44z"/>
</g>
</svg>
