<?xml version="1.0" standalone="no"?>
<!DOCTYPE svg PUBLIC "-//W3C//DTD SVG 20010904//EN"
 "http://www.w3.org/TR/2001/REC-SVG-20010904/DTD/svg10.dtd">
<svg version="1.0" xmlns="http://www.w3.org/2000/svg"
 width="50" height="50" viewBox="0 0 512.000000 512.000000"
 preserveAspectRatio="xMidYMid meet">

<g transform="translate(0.000000,512.000000) scale(0.100000,-0.100000)"
fill="#ffffff" stroke="none">
<path d="M2355 4629 c-392 -37 -800 -206 -1110 -459 -747 -610 -976 -1661
-550 -2526 523 -1063 1821 -1476 2860 -909 975 531 1360 1744 870 2741 -383
779 -1201 1234 -2070 1153z m825 -1204 l0 -185 -370 0 -370 0 -5 -22 c-11 -46
-55 -294 -55 -309 0 -14 9 -13 68 8 82 31 219 41 318 24 172 -30 349 -164 431
-326 87 -170 101 -417 35 -603 -41 -115 -86 -185 -177 -277 -131 -132 -249
-182 -450 -192 -230 -11 -398 47 -535 186 -44 44 -89 102 -107 136 -34 65 -78
208 -70 229 6 14 367 53 386 42 6 -4 11 -17 11 -29 0 -32 43 -118 79 -159 100
-115 293 -118 398 -7 76 81 114 240 94 398 -17 137 -67 218 -165 268 -43 22
-65 27 -136 27 -75 1 -92 -3 -150 -30 -36 -17 -86 -50 -113 -73 l-47 -43 -155
23 c-123 18 -155 26 -155 38 0 16 188 1026 195 1049 4 9 117 12 525 12 l520 0
0 -185z"/>
</g>
</svg>
